Ayanna-latin-1.ufo
<glyph name="dollar" format="1">
  <advance width="551"/>
  <unicode hex="0024"/>
  <outline>
    <contour>
      <point x="391" y="-15"/>
      <point x="491" y="61"/>
      <point x="491" y="197" type="curve" smooth="yes"/>
      <point x="491" y="418"/>
      <point x="203" y="373"/>
      <point x="203" y="497" type="curve" smooth="yes"/>
      <point x="203" y="551"/>
      <point x="242" y="579"/>
      <point x="285" y="579" type="curve" smooth="yes"/>
      <point x="324" y="579"/>
      <point x="366" y="559"/>
      <point x="390" y="517" type="curve"/>
      <point x="487" y="569" type="line"/>
      <point x="456" y="651"/>
      <point x="373" y="690"/>
      <point x="289" y="690" type="curve" smooth="yes"/>
      <point x="181" y="690"/>
      <point x="71" y="621"/>
      <point x="71" y="489" type="curve" smooth="yes"/>
      <point x="71" y="257"/>
      <point x="357" y="309"/>
      <point x="357" y="181" type="curve" smooth="yes"/>
      <point x="357" y="132"/>
      <point x="321" y="100"/>
      <point x="272" y="100" type="curve" smooth="yes"/>
      <point x="225" y="100"/>
      <point x="163" y="119"/>
      <point x="113" y="151" type="curve"/>
      <point x="60" y="58" type="line"/>
      <point x="127" y="9"/>
      <point x="202" y="-15"/>
      <point x="270" y="-15" type="curve" smooth="yes"/>
    </contour>
    <contour>
      <point x="328" y="-97" type="line"/>
      <point x="328" y="42" type="line"/>
      <point x="238" y="42" type="line"/>
      <point x="238" y="-97" type="line"/>
    </contour>
    <contour>
      <point x="328" y="650" type="line"/>
      <point x="328" y="772" type="line"/>
      <point x="238" y="772" type="line"/>
      <point x="238" y="650" type="line"/>
    </contour>
  </outline>
</glyph>
<glyph name="quotesingle" format="1">
  <advance width="173"/>
  <unicode hex="0027"/>
  <outline>
    <contour>
      <point x="148" y="740" type="line"/>
      <point x="25" y="740" type="line"/>
      <point x="43" y="485" type="line"/>
      <point x="130" y="485" type="line"/>
    </contour>
  </outline>
</glyph>
<glyph name="slash" format="1">
  <advance width="418"/>
  <unicode hex="002F"/>
  <outline>
    <contour>
      <point x="297" y="725" type="line"/>
      <point x="10" y="-70" type="line"/>
      <point x="128" y="-70" type="line"/>
      <point x="413" y="725" type="line"/>
    </contour>
  </outline>
</glyph>
<glyph name="three" format="1">
  <advance width="464"/>
  <unicode hex="0033"/>
  <outline>
    <contour>
      <point x="138" y="-150"/>
      <point x="205" y="-150" type="curve" smooth="yes"/>
      <point x="324" y="-150"/>
      <point x="429" y="-77"/>
      <point x="429" y="62" type="curve" smooth="yes"/>
      <point x="429" y="152"/>
      <point x="361" y="238"/>
      <point x="218" y="238" type="curve"/>
      <point x="219" y="211" type="line"/>
      <point x="344" y="211"/>
      <point x="407" y="297"/>
      <point x="407" y="381" type="curve" smooth="yes"/>
      <point x="407" y="494"/>
      <point x="313" y="555"/>
      <point x="212" y="555" type="curve" smooth="yes"/>
      <point x="140" y="555"/>
      <point x="66" y="522"/>
      <point x="25" y="448" type="curve"/>
      <point x="117" y="390" type="line"/>
      <point x="140" y="427"/>
      <point x="172" y="445"/>
      <point x="202" y="445" type="curve" smooth="yes"/>
      <point x="241" y="445"/>
      <point x="275" y="415"/>
      <point x="275" y="360" type="curve" smooth="yes"/>
      <point x="275" y="309"/>
      <point x="246" y="264"/>
      <point x="165" y="264" type="curve" smooth="yes"/>
      <point x="128" y="264" type="line"/>
      <point x="128" y="162" type="line"/>
      <point x="180" y="162" type="line" smooth="yes"/>
      <point x="259" y="162"/>
      <point x="296" y="112"/>
      <point x="296" y="60" type="curve" smooth="yes"/>
      <point x="296" y="-6"/>
      <point x="253" y="-35"/>
      <point x="200" y="-35" type="curve" smooth="yes"/>
      <point x="159" y="-35"/>
      <point x="113" y="-19"/>
      <point x="76" y="11" type="curve"/>
      <point x="7" y="-80" type="line"/>
      <point x="67" y="-127"/>
    </contour>
  </outline>
</glyph>
<glyph name="four" format="1">
  <advance width="505"/>
  <unicode hex="0034"/>
  <outline>
    <contour>
      <point x="418" y="-135" type="line"/>
      <point x="418" y="540" type="line"/>
      <point x="295" y="540" type="line"/>
      <point x="14" y="99" type="line"/>
      <point x="31" y="5" type="line"/>
      <point x="495" y="5" type="line"/>
      <point x="495" y="115" type="line"/>
      <point x="90" y="115" type="line"/>
      <point x="110" y="80" type="line"/>
      <point x="340" y="437" type="line"/>
      <point x="286" y="437" type="line"/>
      <point x="286" y="-135" type="line"/>
    </contour>
  </outline>
</glyph>
<glyph name="five" format="1">
  <advance width="423"/>
  <unicode hex="0035"/>
  <outline>
    <contour>
      <point x="120" y="-142"/>
      <point x="164" y="-142" type="curve" smooth="yes"/>
      <point x="308" y="-142"/>
      <point x="379" y="-29"/>
      <point x="379" y="82" type="curve" smooth="yes"/>
      <point x="379" y="191"/>
      <point x="310" y="297"/>
      <point x="168" y="297" type="curve" smooth="yes"/>
      <point x="148" y="297"/>
      <point x="127" y="295"/>
      <point x="106" y="290" type="curve"/>
      <point x="106" y="503" type="line"/>
      <point x="336" y="503" type="line"/>
      <point x="336" y="540" type="line"/>
      <point x="64" y="540" type="line"/>
      <point x="64" y="245" type="line"/>
      <point x="96" y="256"/>
      <point x="127" y="261"/>
      <point x="155" y="261" type="curve" smooth="yes"/>
      <point x="278" y="261"/>
      <point x="335" y="171"/>
      <point x="335" y="81" type="curve" smooth="yes"/>
      <point x="335" y="-11"/>
      <point x="278" y="-104"/>
      <point x="168" y="-104" type="curve" smooth="yes"/>
      <point x="132" y="-104"/>
      <point x="92" y="-92"/>
      <point x="53" y="-67" type="curve"/>
      <point x="28" y="-100" type="line"/>
      <point x="72" y="-129"/>
    </contour>
  </outline>
</glyph>
<glyph name="greater" format="1">
  <advance width="442"/>
  <unicode hex="003E"/>
  <outline>
    <contour>
      <point x="412" y="253" type="line"/>
      <point x="132" y="540" type="line"/>
      <point x="40" y="463" type="line"/>
      <point x="254" y="252" type="line"/>
      <point x="41" y="37" type="line"/>
      <point x="137" y="-38" type="line"/>
    </contour>
  </outline>
</glyph>
<glyph name="question" format="1">
  <advance width="425"/>
  <unicode hex="003F"/>
  <outline>
    <contour>
      <point x="129" y="142" type="line"/>
      <point x="123" y="165"/>
      <point x="121" y="181"/>
      <point x="121" y="192" type="curve" smooth="yes"/>
      <point x="121" y="334"/>
      <point x="365" y="355"/>
      <point x="365" y="528" type="curve" smooth="yes"/>
      <point x="365" y="642"/>
      <point x="278" y="713"/>
      <point x="186" y="713" type="curve" smooth="yes"/>
      <point x="128" y="713"/>
      <point x="67" y="684"/>
      <point x="27" y="620" type="curve"/>
      <point x="62" y="602" type="line"/>
      <point x="90" y="653"/>
      <point x="138" y="675"/>
      <point x="183" y="675" type="curve" smooth="yes"/>
      <point x="253" y="675"/>
      <point x="321" y="620"/>
      <point x="321" y="527" type="curve" smooth="yes"/>
      <point x="321" y="359"/>
      <point x="85" y="375"/>
      <point x="85" y="191" type="curve" smooth="yes"/>
      <point x="85" y="177"/>
      <point x="87" y="161"/>
      <point x="94" y="135" type="curve"/>
    </contour>
    <component base="period" xOffset="28"/>
  </outline>
</glyph>
<glyph name="at" format="1">
  <advance width="784"/>
  <unicode hex="0040"/>
  <outline>
    <contour>
      <point x="440" y="-76"/>
      <point x="507" y="-63"/>
      <point x="579" y="-38" type="curve"/>
      <point x="550" y="45" type="line"/>
      <point x="493" y="24"/>
      <point x="440" y="15"/>
      <point x="393" y="15" type="curve" smooth="yes"/>
      <point x="224" y="15"/>
      <point x="143" y="153"/>
      <point x="143" y="300" type="curve" smooth="yes"/>
      <point x="143" y="454"/>
      <point x="228" y="599"/>
      <point x="408" y="599" type="curve" smooth="yes"/>
      <point x="535" y="599"/>
      <point x="644" y="519"/>
      <point x="644" y="337" type="curve" smooth="yes"/>
      <point x="644" y="233"/>
      <point x="624" y="182"/>
      <point x="566" y="182" type="curve" smooth="yes"/>
      <point x="547" y="182"/>
      <point x="542" y="193"/>
      <point x="542" y="219" type="curve" smooth="yes"/>
      <point x="542" y="378" type="line" smooth="yes"/>
      <point x="542" y="476"/>
      <point x="484" y="523"/>
      <point x="402" y="523" type="curve" smooth="yes"/>
      <point x="351" y="523"/>
      <point x="291" y="508"/>
      <point x="247" y="481" type="curve"/>
      <point x="281" y="400" type="line"/>
      <point x="315" y="418"/>
      <point x="350" y="432"/>
      <point x="377" y="432" type="curve" smooth="yes"/>
      <point x="412" y="432"/>
      <point x="434" y="417"/>
      <point x="434" y="375" type="curve" smooth="yes"/>
      <point x="434" y="268" type="line" smooth="yes"/>
      <point x="434" y="206"/>
      <point x="419" y="185"/>
      <point x="379" y="185" type="curve" smooth="yes"/>
      <point x="358" y="185"/>
      <point x="340" y="201"/>
      <point x="340" y="225" type="curve" smooth="yes"/>
      <point x="340" y="266"/>
      <point x="363" y="286"/>
      <point x="412" y="286" type="curve" smooth="yes"/>
      <point x="438" y="286"/>
      <point x="458" y="284"/>
      <point x="482" y="280" type="curve"/>
      <point x="482" y="353" type="line"/>
      <point x="460" y="356"/>
      <point x="424" y="358"/>
      <point x="406" y="358" type="curve" smooth="yes"/>
      <point x="295" y="358"/>
      <point x="230" y="306"/>
      <point x="230" y="225" type="curve" smooth="yes"/>
      <point x="230" y="142"/>
      <point x="287" y="98"/>
      <point x="356" y="98" type="curve" smooth="yes"/>
      <point x="404" y="98"/>
      <point x="456" y="127"/>
      <point x="469" y="192" type="curve"/>
      <point x="452" y="192" type="line"/>
      <point x="452" y="124"/>
      <point x="486" y="98"/>
      <point x="556" y="98" type="curve" smooth="yes"/>
      <point x="674" y="98"/>
      <point x="754" y="193"/>
      <point x="754" y="338" type="curve" smooth="yes"/>
      <point x="754" y="577"/>
      <point x="594" y="690"/>
      <point x="407" y="690" type="curve" smooth="yes"/>
      <point x="157" y="690"/>
      <point x="33" y="499"/>
      <point x="33" y="301" type="curve" smooth="yes"/>
      <point x="33" y="107"/>
      <point x="146" y="-76"/>
      <point x="379" y="-76" type="curve" smooth="yes"/>
    </contour>
  </outline>
</glyph>
<glyph name="K" format="1">
  <advance width="514"/>
  <unicode hex="004B"/>
  <outline>
    <contour>
      <point x="506" y="26" type="line"/>
      <point x="488" y="24"/>
      <point x="479" y="33"/>
      <point x="466" y="55" type="curve" smooth="yes"/>
      <point x="273" y="373" type="line"/>
      <point x="269" y="340" type="line"/>
      <point x="487" y="675" type="line"/>
      <point x="442" y="675" type="line"/>
      <point x="243" y="368" type="line"/>
      <point x="254" y="374" type="line"/>
      <point x="114" y="374" type="line"/>
      <point x="127" y="364" type="line"/>
      <point x="127" y="675" type="line"/>
      <point x="85" y="675" type="line"/>
      <point x="85" y="0" type="line"/>
      <point x="127" y="0" type="line"/>
      <point x="127" y="349" type="line"/>
      <point x="114" y="339" type="line"/>
      <point x="255" y="339" type="line"/>
      <point x="242" y="346" type="line"/>
      <point x="433" y="35" type="line" smooth="yes"/>
      <point x="450" y="7"/>
      <point x="466" y="-7"/>
      <point x="491" y="-7" type="curve" smooth="yes"/>
      <point x="497" y="-7"/>
      <point x="504" y="-6"/>
      <point x="509" y="-5" type="curve"/>
    </contour>
  </outline>
</glyph>
<glyph name="O" format="1">
  <advance width="584"/>
  <unicode hex="004F"/>
  <outline>
    <contour>
      <point x="452" y="-7"/>
      <point x="544" y="144"/>
      <point x="544" y="336" type="curve" smooth="yes"/>
      <point x="544" y="531"/>
      <point x="464" y="682"/>
      <point x="295" y="682" type="curve" smooth="yes"/>
      <point x="135" y="682"/>
      <point x="40" y="529"/>
      <point x="40" y="336" type="curve" smooth="yes"/>
      <point x="40" y="142"/>
      <point x="118" y="-7"/>
      <point x="292" y="-7" type="curve" smooth="yes"/>
    </contour>
    <contour>
      <point x="155" y="32"/>
      <point x="86" y="161"/>
      <point x="86" y="336" type="curve" smooth="yes"/>
      <point x="86" y="509"/>
      <point x="160" y="643"/>
      <point x="294" y="643" type="curve" smooth="yes"/>
      <point x="429" y="643"/>
      <point x="498" y="511"/>
      <point x="498" y="336" type="curve" smooth="yes"/>
      <point x="498" y="163"/>
      <point x="426" y="32"/>
      <point x="292" y="32" type="curve" smooth="yes"/>
    </contour>
    <contour>
      <point x="295" y="635" type="move" name="top"/>
    </contour>
  </outline>
</glyph>
<glyph name="U" format="1">
  <advance width="602"/>
  <unicode hex="0055"/>
  <outline>
    <contour>
      <point x="425" y="-8"/>
      <point x="517" y="71"/>
      <point x="517" y="235" type="curve" smooth="yes"/>
      <point x="517" y="675" type="line"/>
      <point x="475" y="675" type="line"/>
      <point x="475" y="235" type="line" smooth="yes"/>
      <point x="475" y="91"/>
      <point x="406" y="31"/>
      <point x="298" y="31" type="curve" smooth="yes"/>
      <point x="208" y="31"/>
      <point x="127" y="80"/>
      <point x="127" y="249" type="curve" smooth="yes"/>
      <point x="127" y="675" type="line"/>
      <point x="85" y="675" type="line"/>
      <point x="85" y="249" type="line" smooth="yes"/>
      <point x="85" y="60"/>
      <point x="179" y="-8"/>
      <point x="300" y="-8" type="curve" smooth="yes"/>
    </contour>
    <contour>
      <point x="363" y="5" type="move" name="ogonek"/>
    </contour>
    <contour>
      <point x="301" y="645" type="move" name="top"/>
    </contour>
  </outline>
</glyph>
<glyph name="V" format="1">
  <advance width="558"/>
  <unicode hex="0056"/>
  <outline>
    <contour>
      <point x="364" y="0" type="line"/>
      <point x="558" y="675" type="line"/>
      <point x="419" y="675" type="line"/>
      <point x="321" y="312" type="line" smooth="yes"/>
      <point x="304" y="250"/>
      <point x="280" y="122"/>
      <point x="267" y="58" type="curve"/>
      <point x="296" y="58" type="line"/>
      <point x="286" y="121"/>
      <point x="258" y="246"/>
      <point x="242" y="307" type="curve" smooth="yes"/>
      <point x="143" y="675" type="line"/>
      <point x="0" y="675" type="line"/>
      <point x="192" y="0" type="line"/>
    </contour>
  </outline>
</glyph>
<glyph name="c" format="1">
  <advance width="422"/>
  <unicode hex="0063"/>
  <outline>
    <contour>
      <point x="293" y="-15"/>
      <point x="347" y="2"/>
      <point x="410" y="39" type="curve"/>
      <point x="374" y="127" type="line"/>
      <point x="328" y="104"/>
      <point x="292" y="94"/>
      <point x="265" y="94" type="curve" smooth="yes"/>
      <point x="196" y="94"/>
      <point x="154" y="140"/>
      <point x="154" y="251" type="curve" smooth="yes"/>
      <point x="154" y="350"/>
      <point x="181" y="409"/>
      <point x="240" y="409" type="curve" smooth="yes"/>
      <point x="278" y="409"/>
      <point x="296" y="380"/>
      <point x="312" y="335" type="curve"/>
      <point x="419" y="375" type="line"/>
      <point x="387" y="469"/>
      <point x="331" y="514"/>
      <point x="239" y="514" type="curve" smooth="yes"/>
      <point x="110" y="514"/>
      <point x="21" y="418"/>
      <point x="21" y="253" type="curve" smooth="yes"/>
      <point x="21" y="81"/>
      <point x="102" y="-15"/>
      <point x="237" y="-15" type="curve" smooth="yes"/>
    </contour>
    <contour>
      <point x="242" y="500" type="move" name="top"/>
    </contour>
    <contour>
      <point x="232" y="0" type="move" name="bottom"/>
    </contour>
  </outline>
</glyph>
<glyph name="e" format="1">
  <advance width="475"/>
  <unicode hex="0065"/>
  <outline>
    <contour>
      <point x="325" y="-15"/>
      <point x="388" y="2"/>
      <point x="445" y="42" type="curve"/>
      <point x="407" y="128" type="line"/>
      <point x="361" y="103"/>
      <point x="319" y="90"/>
      <point x="276" y="90" type="curve" smooth="yes"/>
      <point x="206" y="90"/>
      <point x="158" y="144"/>
      <point x="158" y="251" type="curve" smooth="yes"/>
      <point x="158" y="361"/>
      <point x="197" y="415"/>
      <point x="249" y="415" type="curve" smooth="yes"/>
      <point x="295" y="415"/>
      <point x="324" y="379"/>
      <point x="324" y="309" type="curve"/>
      <point x="100" y="307" type="line"/>
      <point x="98" y="213" type="line"/>
      <point x="455" y="213" type="line"/>
      <point x="455" y="250" type="line" smooth="yes"/>
      <point x="455" y="419"/>
      <point x="398" y="515"/>
      <point x="250" y="515" type="curve" smooth="yes"/>
      <point x="130" y="515"/>
      <point x="25" y="431"/>
      <point x="25" y="256" type="curve" smooth="yes"/>
      <point x="25" y="82"/>
      <point x="125" y="-15"/>
      <point x="265" y="-15" type="curve" smooth="yes"/>
    </contour>
    <contour>
      <point x="417" y="10" type="move" name="ogonek"/>
    </contour>
    <contour>
      <point x="265" y="0" type="move" name="bottom"/>
    </contour>
    <contour>
      <point x="250" y="500" type="move" name="top"/>
    </contour>
  </outline>
</glyph>
<glyph name="f" format="1">
  <advance width="337"/>
  <unicode hex="0066"/>
  <outline>
    <contour>
      <point x="215" y="0" type="line"/>
      <point x="215" y="568" type="line" smooth="yes"/>
      <point x="215" y="613"/>
      <point x="235" y="634"/>
      <point x="265" y="634" type="curve" smooth="yes"/>
      <point x="281" y="634"/>
      <point x="300" y="628"/>
      <point x="318" y="618" type="curve"/>
      <point x="357" y="707" type="line"/>
      <point x="314" y="729"/>
      <point x="271" y="740"/>
      <point x="232" y="740" type="curve" smooth="yes"/>
      <point x="148" y="740"/>
      <point x="85" y="687"/>
      <point x="85" y="579" type="curve" smooth="yes"/>
      <point x="85" y="0" type="line"/>
    </contour>
    <contour>
      <point x="317" y="405" type="line"/>
      <point x="317" y="500" type="line"/>
      <point x="27" y="500" type="line"/>
      <point x="27" y="405" type="line"/>
    </contour>
  </outline>
</glyph>
<glyph name="h" format="1">
  <advance width="527"/>
  <unicode hex="0068"/>
  <outline>
    <contour>
      <point x="501" y="86" type="line"/>
      <point x="475" y="83"/>
      <point x="465" y="93"/>
      <point x="465" y="117" type="curve" smooth="yes"/>
      <point x="465" y="336" type="line" smooth="yes"/>
      <point x="465" y="457"/>
      <point x="400" y="515"/>
      <point x="319" y="515" type="curve" smooth="yes"/>
      <point x="240" y="515"/>
      <point x="165" y="459"/>
      <point x="138" y="348" type="curve"/>
      <point x="185" y="348" type="line"/>
      <point x="185" y="725" type="line"/>
      <point x="55" y="725" type="line"/>
      <point x="55" y="0" type="line"/>
      <point x="185" y="0" type="line"/>
      <point x="185" y="257" type="line" smooth="yes"/>
      <point x="185" y="366"/>
      <point x="227" y="412"/>
      <point x="273" y="412" type="curve" smooth="yes"/>
      <point x="310" y="412"/>
      <point x="335" y="380"/>
      <point x="335" y="323" type="curve" smooth="yes"/>
      <point x="335" y="110" type="line" smooth="yes"/>
      <point x="335" y="0"/>
      <point x="408" y="-29"/>
      <point x="506" y="-9" type="curve"/>
    </contour>
  </outline>
</glyph>
<glyph name="l" format="1">
  <advance width="288"/>
  <unicode hex="006C"/>
  <outline>
    <contour>
      <point x="55" y="34"/>
      <point x="104" y="-15"/>
      <point x="192" y="-15" type="curve" smooth="yes"/>
      <point x="217" y="-15"/>
      <point x="250" y="-10"/>
      <point x="280" y="-2" type="curve"/>
      <point x="257" y="95" type="line"/>
      <point x="245" y="92"/>
      <point x="234" y="90"/>
      <point x="225" y="90" type="curve" smooth="yes"/>
      <point x="198" y="90"/>
      <point x="185" y="105"/>
      <point x="185" y="145" type="curve" smooth="yes"/>
      <point x="185" y="725" type="line"/>
      <point x="55" y="725" type="line"/>
      <point x="55" y="133" type="line" smooth="yes"/>
    </contour>
    <contour>
      <point x="113" y="710" type="move" name="top"/>
    </contour>
    <contour>
      <point x="144" y="0" type="move" name="bottom"/>
    </contour>
    <contour>
      <point x="268" y="500" type="move" name="topright"/>
    </contour>
  </outline>
</glyph>
<glyph name="u" format="1">
  <advance width="502"/>
  <unicode hex="0075"/>
  <outline>
    <contour>
      <point x="373" y="27"/>
      <point x="393" y="-7"/>
      <point x="456" y="-7" type="curve" smooth="yes"/>
      <point x="464" y="-7"/>
      <point x="472" y="-6"/>
      <point x="482" y="-5" type="curve"/>
      <point x="480" y="26" type="line"/>
      <point x="474" y="25"/>
      <point x="469" y="25"/>
      <point x="464" y="25" type="curve" smooth="yes"/>
      <point x="423" y="25"/>
      <point x="413" y="50"/>
      <point x="413" y="103" type="curve"/>
      <point x="413" y="500" type="line"/>
      <point x="373" y="500" type="line"/>
      <point x="373" y="206" type="line" smooth="yes"/>
      <point x="373" y="89"/>
      <point x="307" y="25"/>
      <point x="235" y="25" type="curve" smooth="yes"/>
      <point x="169" y="25"/>
      <point x="125" y="72"/>
      <point x="125" y="159" type="curve" smooth="yes"/>
      <point x="125" y="500" type="line"/>
      <point x="85" y="500" type="line"/>
      <point x="85" y="156" type="line" smooth="yes"/>
      <point x="85" y="52"/>
      <point x="138" y="-7"/>
      <point x="233" y="-7" type="curve" smooth="yes"/>
      <point x="298" y="-7"/>
      <point x="354" y="31"/>
      <point x="382" y="107" type="curve"/>
      <point x="373" y="107" type="line"/>
    </contour>
    <contour>
      <point x="481" y="5" type="move" name="ogonek"/>
    </contour>
    <contour>
      <point x="253" y="500" type="move" name="top"/>
    </contour>
  </outline>
</glyph>
<glyph name="v" format="1">
  <advance width="482"/>
  <unicode hex="0076"/>
  <outline>
    <contour>
      <point x="223" y="113" type="line"/>
      <point x="262" y="113" type="line"/>
      <point x="135" y="500" type="line"/>
      <point x="2" y="500" type="line"/>
      <point x="176" y="0" type="line"/>
      <point x="305" y="0" type="line"/>
      <point x="480" y="500" type="line"/>
      <point x="353" y="500" type="line"/>
    </contour>
  </outline>
</glyph>
<glyph name="w" format="1">
  <advance width="721"/>
  <unicode hex="0077"/>
  <outline>
    <contour>
      <point x="264" y="0" type="line"/>
      <point x="367" y="332" type="line"/>
      <point x="356" y="332" type="line"/>
      <point x="449" y="0" type="line"/>
      <point x="555" y="0" type="line"/>
      <point x="716" y="500" type="line"/>
      <point x="600" y="500" type="line"/>
      <point x="487" y="107" type="line"/>
      <point x="531" y="107" type="line"/>
      <point x="428" y="483" type="line"/>
      <point x="310" y="478" type="line"/>
      <point x="196" y="107" type="line"/>
      <point x="240" y="107" type="line"/>
      <point x="137" y="500" type="line"/>
      <point x="5" y="500" type="line"/>
      <point x="158" y="0" type="line"/>
    </contour>
  </outline>
</glyph>
<glyph name="y" format="1">
  <advance width="483"/>
  <unicode hex="0079"/>
  <outline>
    <contour>
      <point x="357" y="500" type="line"/>
      <point x="237" y="87" type="line"/>
      <point x="276" y="87" type="line"/>
      <point x="146" y="500" type="line"/>
      <point x="15" y="500" type="line"/>
      <point x="192" y="-1" type="line"/>
      <point x="165" y="-78"/>
      <point x="145" y="-110"/>
      <point x="103" y="-110" type="curve" smooth="yes"/>
      <point x="84" y="-110"/>
      <point x="60" y="-103"/>
      <point x="28" y="-91" type="curve"/>
      <point x="-10" y="-185" type="line"/>
      <point x="36" y="-205"/>
      <point x="76" y="-215"/>
      <point x="111" y="-215" type="curve" smooth="yes"/>
      <point x="196" y="-215"/>
      <point x="253" y="-158"/>
      <point x="291" y="-49" type="curve" smooth="yes"/>
      <point x="484" y="500" type="line"/>
    </contour>
    <contour>
      <point x="242" y="500" type="move" name="top"/>
    </contour>
  </outline>
</glyph>
<glyph name="braceleft" format="1">
  <advance width="363"/>
  <unicode hex="007B"/>
  <outline>
    <contour>
      <point x="285" y="-202"/>
      <point x="312" y="-199"/>
      <point x="341" y="-193" type="curve"/>
      <point x="337" y="-94" type="line"/>
      <point x="329" y="-95"/>
      <point x="320" y="-95"/>
      <point x="314" y="-95" type="curve" smooth="yes"/>
      <point x="269" y="-95"/>
      <point x="251" y="-80"/>
      <point x="251" y="-42" type="curve" smooth="yes"/>
      <point x="251" y="171" type="line" smooth="yes"/>
      <point x="251" y="259"/>
      <point x="185" y="303"/>
      <point x="95" y="303" type="curve"/>
      <point x="95" y="287" type="line"/>
      <point x="185" y="287"/>
      <point x="250" y="328"/>
      <point x="250" y="420" type="curve" smooth="yes"/>
      <point x="250" y="628" type="line" smooth="yes"/>
      <point x="250" y="666"/>
      <point x="268" y="681"/>
      <point x="315" y="681" type="curve" smooth="yes"/>
      <point x="321" y="681"/>
      <point x="328" y="681"/>
      <point x="336" y="680" type="curve"/>
      <point x="340" y="779" type="line"/>
      <point x="311" y="785"/>
      <point x="284" y="788"/>
      <point x="260" y="788" type="curve" smooth="yes"/>
      <point x="181" y="788"/>
      <point x="130" y="754"/>
      <point x="130" y="660" type="curve" smooth="yes"/>
      <point x="130" y="429" type="line" smooth="yes"/>
      <point x="130" y="377"/>
      <point x="97" y="344"/>
      <point x="45" y="342" type="curve"/>
      <point x="45" y="248" type="line"/>
      <point x="98" y="246"/>
      <point x="131" y="213"/>
      <point x="131" y="161" type="curve" smooth="yes"/>
      <point x="131" y="-74" type="line" smooth="yes"/>
      <point x="131" y="-168"/>
      <point x="182" y="-202"/>
      <point x="261" y="-202" type="curve" smooth="yes"/>
    </contour>
  </outline>
</glyph>
<glyph name="cent" format="1">
  <advance width="425"/>
  <unicode hex="00A2"/>
  <outline>
    <contour>
      <point x="262" y="13"/>
      <point x="313" y="24"/>
      <point x="366" y="54" type="curve"/>
      <point x="352" y="84" type="line"/>
      <point x="307" y="59"/>
      <point x="265" y="48"/>
      <point x="229" y="48" type="curve" smooth="yes"/>
      <point x="138" y="48"/>
      <point x="83" y="127"/>
      <point x="83" y="259" type="curve" smooth="yes"/>
      <point x="83" y="384"/>
      <point x="133" y="472"/>
      <point x="222" y="472" type="curve" smooth="yes"/>
      <point x="269" y="472"/>
      <point x="317" y="440"/>
      <point x="343" y="388" type="curve"/>
      <point x="375" y="409" type="line"/>
      <point x="340" y="473"/>
      <point x="284" y="507"/>
      <point x="225" y="507" type="curve" smooth="yes"/>
      <point x="113" y="507"/>
      <point x="40" y="408"/>
      <point x="40" y="260" type="curve" smooth="yes"/>
      <point x="40" y="106"/>
      <point x="110" y="13"/>
      <point x="221" y="13" type="curve" smooth="yes"/>
    </contour>
    <contour>
      <point x="203" y="24" type="line"/>
      <point x="203" y="-67" type="line"/>
      <point x="236" y="-67" type="line"/>
      <point x="236" y="24" type="line"/>
    </contour>
    <contour>
      <point x="203" y="582" type="line"/>
      <point x="203" y="488" type="line"/>
      <point x="236" y="488" type="line"/>
      <point x="236" y="582" type="line"/>
    </contour>
  </outline>
</glyph>
<glyph name="ordfeminine" format="1">
  <advance width="352"/>
  <unicode hex="00AA"/>
  <outline>
    <contour>
      <point x="220" y="325"/>
      <point x="252" y="298"/>
      <point x="298" y="298" type="curve" smooth="yes"/>
      <point x="312" y="298"/>
      <point x="327" y="299"/>
      <point x="342" y="303" type="curve"/>
      <point x="339" y="382" type="line"/>
      <point x="335" y="382"/>
      <point x="332" y="382"/>
      <point x="329" y="382" type="curve" smooth="yes"/>
      <point x="315" y="382"/>
      <point x="308" y="392"/>
      <point x="308" y="416" type="curve" smooth="yes"/>
      <point x="308" y="557" type="line" smooth="yes"/>
      <point x="308" y="648"/>
      <point x="249" y="690"/>
      <point x="174" y="690" type="curve" smooth="yes"/>
      <point x="128" y="690"/>
      <point x="73" y="676"/>
      <point x="21" y="648" type="curve"/>
      <point x="56" y="571" type="line"/>
      <point x="88" y="588"/>
      <point x="120" y="600"/>
      <point x="150" y="600" type="curve" smooth="yes"/>
      <point x="178" y="600"/>
      <point x="199" y="585"/>
      <point x="199" y="553" type="curve" smooth="yes"/>
      <point x="199" y="455" type="line" smooth="yes"/>
      <point x="199" y="407"/>
      <point x="184" y="384"/>
      <point x="155" y="384" type="curve" smooth="yes"/>
      <point x="135" y="384"/>
      <point x="124" y="402"/>
      <point x="124" y="421" type="curve" smooth="yes"/>
      <point x="124" y="443"/>
      <point x="138" y="468"/>
      <point x="177" y="468" type="curve" smooth="yes"/>
      <point x="204" y="468"/>
      <point x="226" y="467"/>
      <point x="247" y="463" type="curve"/>
      <point x="247" y="532" type="line"/>
      <point x="227" y="536"/>
      <point x="194" y="537"/>
      <point x="177" y="537" type="curve" smooth="yes"/>
      <point x="73" y="537"/>
      <point x="15" y="490"/>
      <point x="15" y="415" type="curve" smooth="yes"/>
      <point x="15" y="342"/>
      <point x="66" y="298"/>
      <point x="131" y="298" type="curve" smooth="yes"/>
      <point x="176" y="298"/>
      <point x="223" y="327"/>
      <point x="235" y="385" type="curve"/>
      <point x="220" y="385" type="line"/>
    </contour>
  </outline>
</glyph>
<glyph name="twosuperior" format="1">
  <advance width="342"/>
  <unicode hex="00B2"/>
  <outline>
    <contour>
      <point x="285" y="270" type="line"/>
      <point x="285" y="305" type="line"/>
      <point x="76" y="305" type="line"/>
      <point x="81" y="293" type="line"/>
      <point x="174" y="399" type="line" smooth="yes"/>
      <point x="224" y="455"/>
      <point x="279" y="504"/>
      <point x="279" y="562" type="curve" smooth="yes"/>
      <point x="279" y="638"/>
      <point x="217" y="682"/>
      <point x="152" y="682" type="curve" smooth="yes"/>
      <point x="107" y="682"/>
      <point x="61" y="662"/>
      <point x="31" y="619" type="curve"/>
      <point x="62" y="601" type="line"/>
      <point x="84" y="634"/>
      <point x="118" y="650"/>
      <point x="150" y="650" type="curve" smooth="yes"/>
      <point x="197" y="650"/>
      <point x="240" y="618"/>
      <point x="240" y="562" type="curve" smooth="yes"/>
      <point x="240" y="515"/>
      <point x="202" y="477"/>
      <point x="152" y="423" type="curve" smooth="yes"/>
      <point x="29" y="289" type="line"/>
      <point x="29" y="270" type="line"/>
    </contour>
  </outline>
</glyph>
<glyph name="cedilla" format="1">
  <advance width="349"/>
  <unicode hex="00B8"/>
  <outline>
    <contour>
      <point x="129" y="-188"/>
      <point x="141" y="-188" type="curve" smooth="yes"/>
      <point x="213" y="-188"/>
      <point x="250" y="-143"/>
      <point x="250" y="-96" type="curve" smooth="yes"/>
      <point x="250" y="-54"/>
      <point x="221" y="-11"/>
      <point x="160" y="5" type="curve"/>
      <point x="119" y="5" type="line"/>
      <point x="186" y="-16"/>
      <point x="217" y="-57"/>
      <point x="217" y="-92" type="curve" smooth="yes"/>
      <point x="217" y="-125"/>
      <point x="188" y="-154"/>
      <point x="135" y="-154" type="curve" smooth="yes"/>
      <point x="125" y="-154"/>
      <point x="116" y="-153"/>
      <point x="105" y="-151" type="curve"/>
      <point x="103" y="-184" type="line"/>
      <point x="117" y="-187"/>
    </contour>
    <contour>
      <point x="166" y="0" type="move" name="_bottom"/>
    </contour>
  </outline>
</glyph>
<glyph name="AE" format="1">
  <advance width="832"/>
  <unicode hex="00C6"/>
  <outline>
    <contour>
      <point x="134" y="0" type="line"/>
      <point x="365" y="464" type="line" smooth="yes"/>
      <point x="391" y="515"/>
      <point x="413" y="565"/>
      <point x="435" y="615" type="curve"/>
      <point x="426" y="615" type="line"/>
      <point x="504" y="675" type="line"/>
      <point x="346" y="675" type="line"/>
      <point x="-3" y="0" type="line"/>
    </contour>
    <contour>
      <point x="466" y="146" type="line"/>
      <point x="466" y="246" type="line"/>
      <point x="179" y="246" type="line"/>
      <point x="179" y="146" type="line"/>
    </contour>
    <component base="E" xOffset="366"/>
    <contour>
      <point x="458" y="655" type="move" name="top"/>
    </contour>
  </outline>
</glyph>
<glyph name="Oslash" format="1">
  <advance width="622"/>
  <unicode hex="00D8"/>
  <outline>
    <contour>
      <point x="417" y="766" type="line"/>
      <point x="117" y="-63" type="line"/>
      <point x="200" y="-88" type="line"/>
      <point x="499" y="741" type="line"/>
    </contour>
    <component base="O"/>
  </outline>
</glyph>
<glyph name="Thorn" format="1">
  <advance width="519"/>
  <unicode hex="00DE"/>
  <outline>
    <contour>
      <point x="259" y="124" type="line" smooth="yes"/>
      <point x="425" y="124"/>
      <point x="499" y="231"/>
      <point x="499" y="349" type="curve" smooth="yes"/>
      <point x="499" y="489"/>
      <point x="385" y="557"/>
      <point x="258" y="557" type="curve" smooth="yes"/>
      <point x="131" y="557" type="line"/>
      <point x="131" y="447" type="line"/>
      <point x="260" y="447" type="line" smooth="yes"/>
      <point x="336" y="447"/>
      <point x="364" y="400"/>
      <point x="364" y="335" type="curve" smooth="yes"/>
      <point x="364" y="274"/>
      <point x="331" y="234"/>
      <point x="269" y="234" type="curve" smooth="yes"/>
      <point x="131" y="234" type="line"/>
      <point x="131" y="124" type="line"/>
    </contour>
    <contour>
      <point x="197" y="0" type="line"/>
      <point x="197" y="675" type="line"/>
      <point x="65" y="675" type="line"/>
      <point x="65" y="0" type="line"/>
    </contour>
  </outline>
</glyph>
<glyph name="germandbls" format="1">
  <advance width="610"/>
  <unicode hex="00DF"/>
  <outline>
    <contour>
      <point x="158" y="405" type="line"/>
      <point x="158" y="500" type="line"/>
      <point x="27" y="500" type="line"/>
      <point x="27" y="405" type="line"/>
    </contour>
    <contour>
      <point x="525" y="687"/>
      <point x="425" y="740"/>
      <point x="320" y="740" type="curve" smooth="yes"/>
      <point x="205" y="740"/>
      <point x="85" y="677"/>
      <point x="85" y="554" type="curve" smooth="yes"/>
      <point x="85" y="0" type="line"/>
      <point x="215" y="0" type="line"/>
      <point x="215" y="548" type="line" smooth="yes"/>
      <point x="215" y="613"/>
      <point x="259" y="644"/>
      <point x="304" y="644" type="curve" smooth="yes"/>
      <point x="351" y="644"/>
      <point x="399" y="621"/>
      <point x="399" y="579" type="curve" smooth="yes"/>
      <point x="399" y="511"/>
      <point x="283" y="509"/>
      <point x="283" y="393" type="curve" smooth="yes"/>
      <point x="283" y="263"/>
      <point x="455" y="232"/>
      <point x="455" y="139" type="curve" smooth="yes"/>
      <point x="455" y="101"/>
      <point x="426" y="85"/>
      <point x="404" y="85" type="curve" smooth="yes"/>
      <point x="383" y="85"/>
      <point x="344" y="98"/>
      <point x="312" y="117" type="curve"/>
      <point x="275" y="32" type="line"/>
      <point x="321" y="1"/>
      <point x="373" y="-15"/>
      <point x="411" y="-15" type="curve" smooth="yes"/>
      <point x="495" y="-15"/>
      <point x="584" y="42"/>
      <point x="584" y="149" type="curve" smooth="yes"/>
      <point x="584" y="298"/>
      <point x="412" y="349"/>
      <point x="412" y="408" type="curve" smooth="yes"/>
      <point x="412" y="461"/>
      <point x="525" y="486"/>
      <point x="525" y="588" type="curve" smooth="yes"/>
    </contour>
  </outline>
</glyph>
<glyph name="thorn" format="1">
  <advance width="511"/>
  <unicode hex="00FE"/>
  <outline>
    <contour>
      <point x="185" y="-200" type="line"/>
      <point x="186" y="284" type="line" smooth="yes"/>
      <point x="186" y="370"/>
      <point x="222" y="412"/>
      <point x="267" y="412" type="curve" smooth="yes"/>
      <point x="314" y="412"/>
      <point x="350" y="366"/>
      <point x="350" y="274" type="curve" smooth="yes"/>
      <point x="350" y="163"/>
      <point x="319" y="90"/>
      <point x="246" y="90" type="curve" smooth="yes"/>
      <point x="227" y="90"/>
      <point x="205" y="94"/>
      <point x="180" y="104" type="curve"/>
      <point x="80" y="33" type="line"/>
      <point x="142" y="0"/>
      <point x="192" y="-15"/>
      <point x="247" y="-15" type="curve" smooth="yes"/>
      <point x="391" y="-15"/>
      <point x="483" y="91"/>
      <point x="483" y="276" type="curve" smooth="yes"/>
      <point x="483" y="427"/>
      <point x="402" y="515"/>
      <point x="301" y="515" type="curve" smooth="yes"/>
      <point x="228" y="515"/>
      <point x="167" y="469"/>
      <point x="140" y="370" type="curve"/>
      <point x="184" y="370" type="line"/>
      <point x="186" y="725" type="line"/>
      <point x="56" y="725" type="line"/>
      <point x="55" y="-200" type="line"/>
    </contour>
  </outline>
</glyph>
<glyph name="dcroat" format="1">
  <advance width="478"/>
  <unicode hex="0111"/>
  <outline>
    <contour>
      <point x="190" y="618" type="line"/>
      <point x="190" y="583" type="line"/>
      <point x="465" y="583" type="line"/>
      <point x="465" y="618" type="line"/>
    </contour>
    <component base="d"/>
  </outline>
</glyph>
<glyph name="lslash" format="1">
  <advance width="230"/>
  <unicode hex="0142"/>
  <outline>
    <contour>
      <point x="-6" y="263" type="line"/>
      <point x="232" y="363" type="line"/>
      <point x="220" y="393" type="line"/>
      <point x="-18" y="293" type="line"/>
    </contour>
    <component base="l"/>
  </outline>
</glyph>
<glyph name="florin" format="1">
  <advance width="444"/>
  <unicode hex="0192"/>
  <outline>
    <contour>
      <point x="129" y="-214"/>
      <point x="194" y="-158"/>
      <point x="207" y="-54" type="curve" smooth="yes"/>
      <point x="284" y="561" type="line" smooth="yes"/>
      <point x="290" y="609"/>
      <point x="314" y="634"/>
      <point x="353" y="634" type="curve" smooth="yes"/>
      <point x="369" y="634"/>
      <point x="387" y="629"/>
      <point x="408" y="621" type="curve"/>
      <point x="444" y="718" type="line"/>
      <point x="407" y="733"/>
      <point x="371" y="740"/>
      <point x="337" y="740" type="curve" smooth="yes"/>
      <point x="245" y="740"/>
      <point x="170" y="685"/>
      <point x="156" y="572" type="curve" smooth="yes"/>
      <point x="79" y="-41" type="line" smooth="yes"/>
      <point x="73" y="-85"/>
      <point x="53" y="-107"/>
      <point x="22" y="-107" type="curve" smooth="yes"/>
      <point x="10" y="-107"/>
      <point x="-4" y="-104"/>
      <point x="-20" y="-97" type="curve"/>
      <point x="-60" y="-190" type="line"/>
      <point x="-24" y="-206"/>
      <point x="11" y="-214"/>
      <point x="43" y="-214" type="curve" smooth="yes"/>
    </contour>
    <contour>
      <point x="374" y="332" type="line"/>
      <point x="374" y="427" type="line"/>
      <point x="39" y="427" type="line"/>
      <point x="39" y="332" type="line"/>
    </contour>
  </outline>
</glyph>
<glyph name="breve" format="1">
  <advance width="377"/>
  <unicode hex="02D8"/>
  <outline>
    <contour>
      <point x="79" y="696" type="line"/>
      <point x="80" y="628"/>
      <point x="132" y="594"/>
      <point x="186" y="594" type="curve" smooth="yes"/>
      <point x="239" y="594"/>
      <point x="293" y="628"/>
      <point x="297" y="696" type="curve"/>
      <point x="265" y="698" type="line"/>
      <point x="259" y="651"/>
      <point x="223" y="628"/>
      <point x="188" y="628" type="curve" smooth="yes"/>
      <point x="152" y="628"/>
      <point x="116" y="652"/>
      <point x="112" y="700" type="curve"/>
    </contour>
    <contour>
      <point x="187" y="500" type="move" name="_top"/>
    </contour>
  </outline>
</glyph>
<glyph name="ogonek" format="1">
  <advance width="279"/>
  <unicode hex="02DB"/>
  <outline>
    <contour>
      <point x="181" y="-193"/>
      <point x="197" y="-191"/>
      <point x="211" y="-188" type="curve"/>
      <point x="209" y="-158" type="line"/>
      <point x="198" y="-161"/>
      <point x="186" y="-162"/>
      <point x="177" y="-162" type="curve" smooth="yes"/>
      <point x="132" y="-162"/>
      <point x="108" y="-135"/>
      <point x="108" y="-103" type="curve" smooth="yes"/>
      <point x="108" y="-70"/>
      <point x="134" y="-31"/>
      <point x="194" y="0" type="curve"/>
      <point x="156" y="6" type="line"/>
      <point x="96" y="-29"/>
      <point x="70" y="-69"/>
      <point x="70" y="-109" type="curve" smooth="yes"/>
      <point x="70" y="-165"/>
      <point x="114" y="-193"/>
      <point x="168" y="-193" type="curve" smooth="yes"/>
    </contour>
    <contour>
      <point x="194" y="5" type="move" name="_ogonek"/>
    </contour>
  </outline>
</glyph>
<glyph name="tilde" format="1">
  <advance width="415"/>
  <unicode hex="02DC"/>
  <outline>
    <contour>
      <point x="323" y="682"/>
      <point x="294" y="672"/>
      <point x="271" y="672" type="curve" smooth="yes"/>
      <point x="226" y="672"/>
      <point x="189" y="712"/>
      <point x="139" y="712" type="curve" smooth="yes"/>
      <point x="89" y="712"/>
      <point x="52" y="678"/>
      <point x="22" y="649" type="curve"/>
      <point x="75" y="587" type="line"/>
      <point x="101" y="607"/>
      <point x="120" y="617"/>
      <point x="144" y="617" type="curve" smooth="yes"/>
      <point x="189" y="617"/>
      <point x="233" y="577"/>
      <point x="283" y="577" type="curve" smooth="yes"/>
      <point x="333" y="577"/>
      <point x="369" y="609"/>
      <point x="395" y="644" type="curve"/>
      <point x="342" y="702" type="line"/>
    </contour>
    <contour>
      <point x="208" y="500" type="move" name="_top"/>
    </contour>
  </outline>
</glyph>
<glyph name="hungarumlaut" format="1">
  <advance width="454"/>
  <unicode hex="02DD"/>
  <outline>
    <contour>
      <point x="240" y="688" type="line"/>
      <point x="207" y="722" type="line"/>
      <point x="79" y="606" type="line"/>
      <point x="102" y="580" type="line"/>
    </contour>
    <contour>
      <point x="404" y="688" type="line"/>
      <point x="371" y="722" type="line"/>
      <point x="243" y="606" type="line"/>
      <point x="266" y="580" type="line"/>
    </contour>
    <contour>
      <point x="193" y="500" type="move" name="_top"/>
    </contour>
  </outline>
</glyph>
<glyph name="tml_Nna" format="1">
  <advance width="1115"/>
  <unicode hex="0BA3"/>
  <note>
	tml_Nna
  </note>
  <outline>
    <contour>
      <point x="561" y="403"/>
      <point x="591" y="322"/>
      <point x="591" y="216" type="curve" smooth="yes"/>
      <point x="591" y="102"/>
      <point x="569" y="19"/>
      <point x="521" y="19" type="curve" smooth="yes"/>
      <point x="473" y="19"/>
      <point x="447" y="104"/>
      <point x="447" y="221" type="curve" smooth="yes"/>
      <point x="447" y="337"/>
      <point x="473" y="410"/>
      <point x="512" y="453" type="curve"/>
    </contour>
    <contour>
      <point x="823" y="401"/>
      <point x="851" y="328"/>
      <point x="851" y="216" type="curve" smooth="yes"/>
      <point x="851" y="102"/>
      <point x="829" y="19"/>
      <point x="781" y="19" type="curve" smooth="yes"/>
      <point x="737" y="19"/>
      <point x="714" y="104"/>
      <point x="714" y="221" type="curve" smooth="yes"/>
      <point x="714" y="331"/>
      <point x="742" y="402"/>
      <point x="785" y="446" type="curve"/>
    </contour>
    <contour>
      <point x="949" y="1" type="line"/>
      <point x="985" y="1" type="line"/>
      <point x="985" y="511" type="line"/>
      <point x="1085" y="511" type="line"/>
      <point x="1085" y="545" type="line"/>
      <point x="960" y="545" type="line"/>
      <point x="937" y="545" type="line"/>
      <point x="937" y="544" type="line"/>
      <point x="882" y="541"/>
      <point x="830" y="527"/>
      <point x="788" y="496" type="curve"/>
      <point x="739" y="536"/>
      <point x="683" y="545"/>
      <point x="650" y="545" type="curve" smooth="yes"/>
      <point x="599" y="545"/>
      <point x="551" y="533"/>
      <point x="511" y="502" type="curve"/>
      <point x="468" y="534"/>
      <point x="417" y="550"/>
      <point x="363" y="550" type="curve" smooth="yes"/>
      <point x="352" y="550" type="line"/>
      <point x="351" y="550" type="line"/>
      <point x="351" y="550" type="line" smooth="yes"/>
      <point x="179" y="550"/>
      <point x="100" y="422"/>
      <point x="100" y="248" type="curve" smooth="yes"/>
      <point x="100" y="95"/>
      <point x="145" y="-17"/>
      <point x="241" y="-17" type="curve" smooth="yes"/>
      <point x="326" y="-17"/>
      <point x="364" y="65"/>
      <point x="364" y="170" type="curve" smooth="yes"/>
      <point x="364" y="265"/>
      <point x="317" y="347"/>
      <point x="235" y="347" type="curve" smooth="yes"/>
      <point x="193" y="347"/>
      <point x="158" y="322"/>
      <point x="138" y="276" type="curve"/>
      <point x="145" y="416"/>
      <point x="209" y="514"/>
      <point x="351" y="514" type="curve" smooth="yes"/>
      <point x="355" y="514"/>
      <point x="360" y="515"/>
      <point x="364" y="515" type="curve" smooth="yes"/>
      <point x="409" y="515"/>
      <point x="450" y="502"/>
      <point x="484" y="477" type="curve"/>
      <point x="439" y="427"/>
      <point x="410" y="346"/>
      <point x="410" y="221" type="curve" smooth="yes"/>
      <point x="410" y="83"/>
      <point x="449" y="-17"/>
      <point x="519" y="-17" type="curve" smooth="yes"/>
      <point x="590" y="-17"/>
      <point x="628" y="81"/>
      <point x="628" y="216" type="curve" smooth="yes"/>
      <point x="628" y="334"/>
      <point x="593" y="422"/>
      <point x="538" y="478" type="curve"/>
      <point x="572" y="502"/>
      <point x="611" y="511"/>
      <point x="650" y="511" type="curve" smooth="yes"/>
      <point x="683" y="511"/>
      <point x="723" y="500"/>
      <point x="759" y="472" type="curve"/>
      <point x="709" y="421"/>
      <point x="677" y="341"/>
      <point x="677" y="221" type="curve" smooth="yes"/>
      <point x="677" y="83"/>
      <point x="714" y="-17"/>
      <point x="779" y="-17" type="curve" smooth="yes"/>
      <point x="850" y="-17"/>
      <point x="888" y="81"/>
      <point x="888" y="216" type="curve" smooth="yes"/>
      <point x="888" y="343"/>
      <point x="856" y="422"/>
      <point x="814" y="471" type="curve"/>
      <point x="853" y="498"/>
      <point x="901" y="509"/>
      <point x="949" y="511" type="curve"/>
    </contour>
    <contour>
      <point x="143" y="157" type="line"/>
      <point x="134" y="236"/>
      <point x="169" y="312"/>
      <point x="235" y="312" type="curve" smooth="yes"/>
      <point x="302" y="312"/>
      <point x="328" y="235"/>
      <point x="328" y="170" type="curve" smooth="yes"/>
      <point x="328" y="93"/>
      <point x="305" y="18"/>
      <point x="241" y="18" type="curve" smooth="yes"/>
      <point x="186" y="18"/>
      <point x="155" y="73"/>
      <point x="143" y="157" type="curve"/>
    </contour>
  </outline>
</glyph>
<glyph name="tml_Ya" format="1">
  <advance width="549"/>
  <unicode hex="0BAF"/>
  <note>
	tml_Ya
  </note>
  <outline>
    <contour>
      <point x="11" y="157" type="line" smooth="yes"/>
      <point x="11" y="53"/>
      <point x="35" y="-16"/>
      <point x="134" y="-16" type="curve" smooth="yes"/>
      <point x="176" y="-16"/>
      <point x="206" y="1"/>
      <point x="226" y="34" type="curve"/>
      <point x="226" y="0" type="line"/>
      <point x="506" y="0" type="line"/>
      <point x="506" y="545" type="line"/>
      <point x="470" y="545" type="line"/>
      <point x="470" y="34" type="line"/>
      <point x="262" y="34" type="line"/>
      <point x="262" y="545" type="line"/>
      <point x="226" y="545" type="line"/>
      <point x="226" y="192" type="line" smooth="yes"/>
      <point x="226" y="84"/>
      <point x="209" y="17"/>
      <point x="134" y="17" type="curve" smooth="yes"/>
      <point x="78" y="17"/>
      <point x="44" y="44"/>
      <point x="44" y="151" type="curve" smooth="yes"/>
      <point x="44" y="545" type="line"/>
      <point x="11" y="545" type="line"/>
    </contour>
  </outline>
</glyph>
<glyph name="si_U" format="1">
  <advance width="565"/>
  <unicode hex="0D8B"/>
  <note>
	si_U
  </note>
  <outline>
    <contour>
      <point x="408" y="417"/>
      <point x="386" y="418"/>
      <point x="366" y="418" type="curve" smooth="yes"/>
      <point x="319" y="418"/>
      <point x="279" y="413"/>
      <point x="243" y="404" type="curve"/>
      <point x="231" y="424"/>
      <point x="225" y="448"/>
      <point x="225" y="471" type="curve" smooth="yes"/>
      <point x="225" y="519"/>
      <point x="254" y="563"/>
      <point x="321" y="563" type="curve" smooth="yes"/>
      <point x="362" y="563"/>
      <point x="432" y="530"/>
      <point x="431" y="415" type="curve"/>
    </contour>
    <contour>
      <point x="76" y="347"/>
      <point x="35" y="228"/>
      <point x="35" y="105" type="curve" smooth="yes"/>
      <point x="35" y="-50"/>
      <point x="127" y="-205"/>
      <point x="313" y="-205" type="curve" smooth="yes"/>
      <point x="460" y="-205"/>
      <point x="552" y="-108"/>
      <point x="564" y="6" type="curve"/>
      <point x="536" y="11" type="line"/>
      <point x="522" y="-89"/>
      <point x="439" y="-171"/>
      <point x="314" y="-171" type="curve" smooth="yes"/>
      <point x="153" y="-171"/>
      <point x="70" y="-42"/>
      <point x="70" y="106" type="curve" smooth="yes"/>
      <point x="70" y="246"/>
      <point x="125" y="386"/>
      <point x="365" y="386" type="curve" smooth="yes"/>
      <point x="412" y="386"/>
      <point x="431" y="384"/>
      <point x="457" y="381" type="curve"/>
      <point x="459" y="393"/>
      <point x="459" y="404"/>
      <point x="459" y="416" type="curve" smooth="yes"/>
      <point x="459" y="505"/>
      <point x="413" y="594"/>
      <point x="320" y="594" type="curve" smooth="yes"/>
      <point x="244" y="594"/>
      <point x="194" y="536"/>
      <point x="194" y="468" type="curve" smooth="yes"/>
      <point x="194" y="444"/>
      <point x="200" y="419"/>
      <point x="214" y="395" type="curve"/>
    </contour>
  </outline>
</glyph>
<glyph name="si_Ma" format="1">
  <advance width="540"/>
  <unicode hex="0DB8"/>
  <note>
	si_Ma
  </note>
  <outline>
    <contour>
      <point x="510" y="546"/>
      <point x="450" y="755"/>
      <point x="264" y="756" type="curve" smooth="yes"/>
      <point x="263" y="756" type="line" smooth="yes"/>
      <point x="175" y="756"/>
      <point x="88" y="720"/>
      <point x="46" y="613" type="curve"/>
      <point x="77" y="603" type="line"/>
      <point x="111" y="693"/>
      <point x="194" y="723"/>
      <point x="255" y="723" type="curve" smooth="yes"/>
      <point x="258" y="723" type="line" smooth="yes"/>
      <point x="417" y="720"/>
      <point x="478" y="541"/>
      <point x="478" y="377" type="curve" smooth="yes"/>
      <point x="478" y="224"/>
      <point x="436" y="35"/>
      <point x="261" y="35" type="curve" smooth="yes"/>
      <point x="90" y="35"/>
      <point x="62" y="218"/>
      <point x="62" y="296" type="curve" smooth="yes"/>
      <point x="62" y="367"/>
      <point x="74" y="493"/>
      <point x="149" y="493" type="curve" smooth="yes"/>
      <point x="175" y="493"/>
      <point x="187" y="469"/>
      <point x="187" y="441" type="curve" smooth="yes"/>
      <point x="187" y="417"/>
      <point x="185" y="390"/>
      <point x="185" y="339" type="curve" smooth="yes"/>
      <point x="185" y="263"/>
      <point x="209" y="221"/>
      <point x="269" y="221" type="curve" smooth="yes"/>
      <point x="353" y="221"/>
      <point x="365" y="294"/>
      <point x="365" y="380" type="curve" smooth="yes"/>
      <point x="365" y="488"/>
      <point x="333" y="528"/>
      <point x="274" y="528" type="curve" smooth="yes"/>
      <point x="242" y="528"/>
      <point x="219" y="518"/>
      <point x="205" y="500" type="curve"/>
      <point x="190" y="520"/>
      <point x="166" y="527"/>
      <point x="152" y="527" type="curve" smooth="yes"/>
      <point x="48" y="527"/>
      <point x="30" y="391"/>
      <point x="30" y="296" type="curve" smooth="yes"/>
      <point x="30" y="127"/>
      <point x="109" y="0"/>
      <point x="261" y="0" type="curve" smooth="yes"/>
      <point x="470" y="0"/>
      <point x="510" y="204"/>
      <point x="510" y="377" type="curve" smooth="yes"/>
    </contour>
    <contour>
      <point x="227" y="495"/>
      <point x="255" y="497"/>
      <point x="269" y="497" type="curve" smooth="yes"/>
      <point x="272" y="497"/>
      <point x="274" y="497"/>
      <point x="275" y="497" type="curve" smooth="yes"/>
      <point x="317" y="497"/>
      <point x="337" y="462"/>
      <point x="337" y="391" type="curve" smooth="yes"/>
      <point x="337" y="388"/>
      <point x="337" y="385"/>
      <point x="337" y="381" type="curve" smooth="yes"/>
      <point x="335" y="301"/>
      <point x="323" y="253"/>
      <point x="271" y="253" type="curve" smooth="yes"/>
      <point x="222" y="253"/>
      <point x="214" y="286"/>
      <point x="214" y="346" type="curve" smooth="yes"/>
      <point x="214" y="391"/>
      <point x="217" y="404"/>
      <point x="219" y="451" type="curve" smooth="yes"/>
      <point x="219" y="458"/>
      <point x="219" y="464"/>
      <point x="218" y="470" type="curve"/>
    </contour>
  </outline>
</glyph>
<glyph name="si_La" format="1">
  <advance width="590"/>
  <unicode hex="0DBD"/>
  <note>
	si_La
  </note>
  <outline>
    <contour>
      <point x="144" y="-159"/>
      <point x="89" y="40"/>
      <point x="89" y="173" type="curve" smooth="yes"/>
      <point x="89" y="326"/>
      <point x="141" y="509"/>
      <point x="305" y="509" type="curve" smooth="yes"/>
      <point x="431" y="509"/>
      <point x="506" y="429"/>
      <point x="506" y="305" type="curve" smooth="yes"/>
      <point x="506" y="201"/>
      <point x="444" y="162"/>
      <point x="383" y="162" type="curve" smooth="yes"/>
      <point x="325" y="162"/>
      <point x="293" y="198"/>
      <point x="293" y="253" type="curve" smooth="yes"/>
      <point x="293" y="315"/>
      <point x="326" y="339"/>
      <point x="359" y="339" type="curve" smooth="yes"/>
      <point x="399" y="339" type="line"/>
      <point x="399" y="371" type="line"/>
      <point x="208" y="371" type="line"/>
      <point x="208" y="339" type="line"/>
      <point x="286" y="339" type="line"/>
      <point x="271" y="320"/>
      <point x="258" y="289"/>
      <point x="258" y="254" type="curve" smooth="yes"/>
      <point x="258" y="164"/>
      <point x="317" y="130"/>
      <point x="384" y="130" type="curve" smooth="yes"/>
      <point x="462" y="130"/>
      <point x="535" y="182"/>
      <point x="535" y="307" type="curve" smooth="yes"/>
      <point x="535" y="436"/>
      <point x="462" y="540"/>
      <point x="305" y="540" type="curve" smooth="yes"/>
      <point x="91" y="540"/>
      <point x="57" y="289"/>
      <point x="57" y="173" type="curve" smooth="yes"/>
      <point x="57" y="57"/>
      <point x="109" y="-188"/>
      <point x="313" y="-188" type="curve" smooth="yes"/>
      <point x="484" y="-188"/>
      <point x="524" y="-53"/>
      <point x="525" y="38" type="curve"/>
      <point x="497" y="38" type="line"/>
      <point x="497" y="-52"/>
      <point x="448" y="-159"/>
      <point x="313" y="-159" type="curve" smooth="yes"/>
    </contour>
  </outline>
</glyph>
<glyph name="perthousand" format="1">
  <advance width="1320"/>
  <unicode hex="2030"/>
  <outline>
    <contour>
      <point x="1195" y="109"/>
      <point x="1163" y="69"/>
      <point x="1120" y="69" type="curve" smooth="yes"/>
      <point x="1076" y="69"/>
      <point x="1045" y="109"/>
      <point x="1045" y="190" type="curve" smooth="yes"/>
      <point x="1045" y="260"/>
      <point x="1071" y="307"/>
      <point x="1121" y="307" type="curve" smooth="yes"/>
      <point x="1171" y="307"/>
      <point x="1195" y="259"/>
      <point x="1195" y="188" type="curve" smooth="yes"/>
    </contour>
    <contour>
      <point x="1305" y="314"/>
      <point x="1243" y="392"/>
      <point x="1124" y="392" type="curve" smooth="yes"/>
      <point x="1005" y="392"/>
      <point x="935" y="311"/>
      <point x="935" y="188" type="curve" smooth="yes"/>
      <point x="935" y="65"/>
      <point x="998" y="-15"/>
      <point x="1119" y="-15" type="curve" smooth="yes"/>
      <point x="1237" y="-15"/>
      <point x="1305" y="71"/>
      <point x="1305" y="191" type="curve" smooth="yes"/>
    </contour>
    <component base="percent"/>
  </outline>
</glyph>
<glyph name="uni2113" format="1">
  <advance width="302"/>
  <unicode hex="2113"/>
  <outline>
    <contour>
      <point x="165" y="255"/>
      <point x="274" y="467"/>
      <point x="274" y="620" type="curve" smooth="yes"/>
      <point x="274" y="700"/>
      <point x="244" y="756"/>
      <point x="178" y="756" type="curve" smooth="yes"/>
      <point x="110" y="756"/>
      <point x="83" y="693"/>
      <point x="83" y="592" type="curve" smooth="yes"/>
      <point x="85" y="120" type="line" smooth="yes"/>
      <point x="85" y="37"/>
      <point x="132" y="-7"/>
      <point x="189" y="-7" type="curve" smooth="yes"/>
      <point x="225" y="-7"/>
      <point x="265" y="10"/>
      <point x="299" y="46" type="curve"/>
      <point x="277" y="71" type="line"/>
      <point x="249" y="42"/>
      <point x="219" y="28"/>
      <point x="193" y="28" type="curve" smooth="yes"/>
      <point x="154" y="28"/>
      <point x="125" y="57"/>
      <point x="125" y="121" type="curve" smooth="yes"/>
      <point x="123" y="592" type="line" smooth="yes"/>
      <point x="123" y="672"/>
      <point x="137" y="721"/>
      <point x="178" y="721" type="curve" smooth="yes"/>
      <point x="221" y="721"/>
      <point x="236" y="679"/>
      <point x="236" y="616" type="curve" smooth="yes"/>
      <point x="236" y="480"/>
      <point x="140" y="279"/>
      <point x="10" y="166" type="curve"/>
      <point x="34" y="138" type="line"/>
    </contour>
  </outline>
</glyph>
<glyph name="uni2126" format="1">
  <advance width="664"/>
  <unicode hex="2126"/>
  <outline>
    <contour>
      <point x="301" y="0" type="line"/>
      <point x="301" y="102" type="line"/>
      <point x="226" y="129"/>
      <point x="186" y="240"/>
      <point x="186" y="345" type="curve" smooth="yes"/>
      <point x="186" y="461"/>
      <point x="229" y="575"/>
      <point x="333" y="575" type="curve" smooth="yes"/>
      <point x="434" y="575"/>
      <point x="476" y="462"/>
      <point x="476" y="347" type="curve" smooth="yes"/>
      <point x="476" y="242"/>
      <point x="437" y="132"/>
      <point x="363" y="102" type="curve"/>
      <point x="363" y="0" type="line"/>
      <point x="629" y="0" type="line"/>
      <point x="629" y="110" type="line"/>
      <point x="475" y="110" type="line"/>
      <point x="475" y="94" type="line"/>
      <point x="571" y="163"/>
      <point x="615" y="266"/>
      <point x="615" y="375" type="curve" smooth="yes"/>
      <point x="615" y="536"/>
      <point x="521" y="690"/>
      <point x="333" y="690" type="curve" smooth="yes"/>
      <point x="145" y="690"/>
      <point x="47" y="531"/>
      <point x="47" y="368" type="curve" smooth="yes"/>
      <point x="47" y="264"/>
      <point x="88" y="166"/>
      <point x="177" y="98" type="curve"/>
      <point x="177" y="110" type="line"/>
      <point x="35" y="110" type="line"/>
      <point x="35" y="0" type="line"/>
    </contour>
  </outline>
</glyph>
<glyph name="product" format="1">
  <advance width="683"/>
  <unicode hex="220F"/>
  <outline>
    <contour>
      <point x="458" y="565" type="line"/>
      <point x="438" y="585" type="line"/>
      <point x="438" y="-175" type="line"/>
      <point x="570" y="-175" type="line"/>
      <point x="570" y="585" type="line"/>
      <point x="550" y="565" type="line"/>
      <point x="663" y="565" type="line"/>
      <point x="663" y="675" type="line"/>
      <point x="20" y="675" type="line"/>
      <point x="20" y="565" type="line"/>
      <point x="138" y="565" type="line"/>
      <point x="118" y="585" type="line"/>
      <point x="118" y="-175" type="line"/>
      <point x="250" y="-175" type="line"/>
      <point x="250" y="585" type="line"/>
      <point x="230" y="565" type="line"/>
    </contour>
  </outline>
</glyph>
<glyph name="summation" format="1">
  <advance width="482"/>
  <unicode hex="2211"/>
  <outline>
    <contour>
      <point x="27" y="-175" type="line"/>
      <point x="424" y="-175" type="line"/>
      <point x="424" y="-138" type="line"/>
      <point x="72" y="-138" type="line"/>
      <point x="74" y="-146" type="line"/>
      <point x="354" y="259" type="line"/>
      <point x="99" y="649" type="line"/>
      <point x="97" y="641" type="line"/>
      <point x="442" y="641" type="line"/>
      <point x="442" y="678" type="line"/>
      <point x="49" y="678" type="line"/>
      <point x="49" y="649" type="line"/>
      <point x="315" y="246" type="line"/>
      <point x="313" y="266" type="line"/>
      <point x="27" y="-147" type="line"/>
    </contour>
  </outline>
</glyph>
<glyph name="fi" format="1">
  <advance width="478"/>
  <unicode hex="FB01"/>
  <outline>
    <contour>
      <point x="146" y="0" type="line"/>
      <point x="146" y="586" type="line" smooth="yes"/>
      <point x="146" y="659"/>
      <point x="173" y="697"/>
      <point x="219" y="697" type="curve" smooth="yes"/>
      <point x="236" y="697"/>
      <point x="255" y="692"/>
      <point x="275" y="682" type="curve"/>
      <point x="292" y="712" type="line"/>
      <point x="268" y="726"/>
      <point x="242" y="732"/>
      <point x="219" y="732" type="curve" smooth="yes"/>
      <point x="154" y="732"/>
      <point x="106" y="685"/>
      <point x="106" y="598" type="curve" smooth="yes"/>
      <point x="106" y="0" type="line"/>
    </contour>
    <contour>
      <point x="392" y="0" type="line"/>
      <point x="392" y="500" type="line"/>
      <point x="353" y="500" type="line"/>
      <point x="353" y="0" type="line"/>
    </contour>
    <contour>
      <point x="371" y="465" type="line"/>
      <point x="371" y="500" type="line"/>
      <point x="30" y="500" type="line"/>
      <point x="30" y="465" type="line"/>
    </contour>
    <contour>
      <point x="394" y="607"/>
      <point x="406" y="624"/>
      <point x="406" y="645" type="curve" smooth="yes"/>
      <point x="406" y="665"/>
      <point x="394" y="682"/>
      <point x="373" y="682" type="curve" smooth="yes"/>
      <point x="352" y="682"/>
      <point x="340" y="665"/>
      <point x="340" y="645" type="curve" smooth="yes"/>
      <point x="340" y="624"/>
      <point x="352" y="607"/>
      <point x="373" y="607" type="curve" smooth="yes"/>
    </contour>
  </outline>
</glyph>
<glyph name=".notdef" format="1">
  <advance width="512"/>
  <note>
	.notdef
  </note>
  <outline>
    <contour>
      <point x="51" y="0" type="line"/>
      <point x="461" y="0" type="line"/>
      <point x="461" y="546" type="line"/>
      <point x="51" y="546" type="line"/>
    </contour>
    <contour>
      <point x="102" y="51" type="line"/>
      <point x="102" y="495" type="line"/>
      <point x="410" y="495" type="line"/>
      <point x="410" y="51" type="line"/>
    </contour>
  </outline>
</glyph>
<glyph name="uni0D82" format="1">
  <advance width="607"/>
  <note>
	uni0D82
  </note>
  <outline>
    <contour>
      <point x="527" y="461"/>
      <point x="542" y="388"/>
      <point x="542" y="300" type="curve" smooth="yes"/>
      <point x="542" y="211"/>
      <point x="522" y="30"/>
      <point x="420" y="30" type="curve" smooth="yes"/>
      <point x="328" y="30"/>
      <point x="322" y="168"/>
      <point x="322" y="238" type="curve"/>
      <point x="290" y="238" type="line"/>
      <point x="290" y="167"/>
      <point x="288" y="30"/>
      <point x="200" y="30" type="curve" smooth="yes"/>
      <point x="127" y="30"/>
      <point x="97" y="109"/>
      <point x="97" y="188" type="curve" smooth="yes"/>
      <point x="97" y="264"/>
      <point x="119" y="319"/>
      <point x="143" y="353" type="curve"/>
      <point x="322" y="353" type="line"/>
      <point x="323" y="361"/>
      <point x="323" y="369"/>
      <point x="323" y="377" type="curve" smooth="yes"/>
      <point x="323" y="466"/>
      <point x="264" y="525"/>
      <point x="195" y="525" type="curve" smooth="yes"/>
      <point x="141" y="525"/>
      <point x="96" y="486"/>
      <point x="96" y="427" type="curve" smooth="yes"/>
      <point x="96" y="413"/>
      <point x="99" y="399"/>
      <point x="104" y="383" type="curve"/>
      <point x="51" y="383" type="line"/>
      <point x="51" y="353" type="line"/>
      <point x="107" y="353" type="line"/>
      <point x="88" y="317"/>
      <point x="65" y="253"/>
      <point x="65" y="185" type="curve" smooth="yes"/>
      <point x="65" y="79"/>
      <point x="113" y="0"/>
      <point x="202" y="0" type="curve" smooth="yes"/>
      <point x="262" y="0"/>
      <point x="293" y="42"/>
      <point x="308" y="88" type="curve"/>
      <point x="324" y="42"/>
      <point x="357" y="0"/>
      <point x="418" y="0" type="curve" smooth="yes"/>
      <point x="456" y="0"/>
      <point x="485" y="14"/>
      <point x="508" y="38" type="curve"/>
      <point x="517" y="18"/>
      <point x="526" y="-10"/>
      <point x="526" y="-41" type="curve" smooth="yes"/>
      <point x="526" y="-147"/>
      <point x="410" y="-193"/>
      <point x="320" y="-193" type="curve" smooth="yes"/>
      <point x="224" y="-193"/>
      <point x="127" y="-151"/>
      <point x="126" y="-62" type="curve"/>
      <point x="126" y="-36"/>
      <point x="135" y="-15"/>
      <point x="135" y="-15" type="curve"/>
      <point x="107" y="-5" type="line"/>
      <point x="107" y="-5"/>
      <point x="96" y="-30"/>
      <point x="96" y="-67" type="curve" smooth="yes"/>
      <point x="97" y="-144"/>
      <point x="170" y="-223"/>
      <point x="320" y="-223" type="curve" smooth="yes"/>
      <point x="470" y="-223"/>
      <point x="557" y="-138"/>
      <point x="557" y="-43" type="curve" smooth="yes"/>
      <point x="557" y="5"/>
      <point x="538" y="48"/>
      <point x="529" y="66" type="curve"/>
      <point x="563" y="124"/>
      <point x="574" y="212"/>
      <point x="574" y="300" type="curve" smooth="yes"/>
      <point x="574" y="484"/>
      <point x="514" y="606"/>
      <point x="450" y="670" type="curve" smooth="yes"/>
      <point x="401" y="719"/>
      <point x="332" y="746"/>
      <point x="258" y="746" type="curve" smooth="yes"/>
      <point x="245" y="746"/>
      <point x="235" y="745"/>
      <point x="222" y="743" type="curve"/>
      <point x="228" y="714" type="line"/>
      <point x="228" y="713" type="line"/>
      <point x="307" y="713"/>
      <point x="257" y="499"/>
      <point x="418" y="499" type="curve" smooth="yes"/>
      <point x="461" y="499"/>
      <point x="489" y="509"/>
      <point x="506" y="518" type="curve"/>
    </contour>
    <contour>
      <point x="344" y="703"/>
      <point x="401" y="676"/>
      <point x="426" y="650" type="curve" smooth="yes"/>
      <point x="447" y="629"/>
      <point x="475" y="589"/>
      <point x="495" y="549" type="curve"/>
      <point x="484" y="539"/>
      <point x="461" y="529"/>
      <point x="416" y="529" type="curve" smooth="yes"/>
      <point x="310" y="529"/>
      <point x="328" y="672"/>
      <point x="286" y="712" type="curve"/>
    </contour>
    <contour>
      <point x="136" y="384" type="line"/>
      <point x="131" y="396"/>
      <point x="128" y="411"/>
      <point x="128" y="426" type="curve" smooth="yes"/>
      <point x="128" y="459"/>
      <point x="144" y="493"/>
      <point x="197" y="493" type="curve" smooth="yes"/>
      <point x="257" y="493"/>
      <point x="291" y="436"/>
      <point x="291" y="390" type="curve" smooth="yes"/>
      <point x="291" y="388"/>
      <point x="291" y="386"/>
      <point x="291" y="384" type="curve"/>
    </contour>
  </outline>
</glyph>
